<svg xmlns="http://www.w3.org/2000/svg" version="1.1" xmlns:xlink="http://www.w3.org/1999/xlink" xmlns:svgjs="http://svgjs.dev/svgjs" width="24" height="24"><svg height="24" viewBox="0 0 24 24" width="24" xmlns="http://www.w3.org/2000/svg"><path d="m4 7.49547865v9.99505345c0 .5467123.4463856 1.0024733.99703014 1.0024733h6.00593976c.5439938 0 .9970301-.4519099.9970301-1.0093689v-1.9812622c0-.5660158.4489176-1.0093689 1.0026855-1.0093689h1.9973145c2 0 4.4552372 4.1518185 4.4552372 4.1518185.3097972.4723692.5447628.3974018.5447628-.1586636v-11.98630944c0-.55689673-.240508-.63065499-.5371896-.16660048 0 0-2.4628104 4.17981412-4.4628104 4.17981412h-1.9973145c-.5630493 0-1.0026855-.4449048-1.0026855-.99372275v-2.03261367c0-.54814623-.4463856-.99372273-.9970301-.99372273h-6.00593976c-.54399383 0-.99703014.44882259-.99703014 1.0024733zm10 9.98815785c0 1.65628-1.3427067 3.0093689-2.9970301 3.0093689h-6.00593976c-1.65744067 0-2.99703014-1.3533421-2.99703014-3.0024733v-9.99505345c0-1.65554204 1.34579023-3.0024733 2.99703014-3.0024733h6.00593976c1.6537047 0 2.9970301 1.33949433 2.9970301 2.99372273v1.02633638h-.2449213 1.2449213c.3888363-.23748627.8987099-.71092999 1.4412781-1.36584137.3311885-.39976383.6508805-.83604717.943132-1.27291925.1739473-.26002499.2966084-.45678865.3933412-.61835371.5887284-.92085938 1.375597-1.52864098 2.6554761-1.13307572 1.2484151.38584084 1.5667726 1.29907722 1.5667726 2.37697645v11.98630944c0 1.0883248-.3150822 2.0011856-1.5821599 2.3808417-1.2701136.3805657-2.0354063-.2110827-2.6841127-1.2041388-.0582912-.0985707-.1803924-.2936913-.3536429-.5516388-.2911331-.4334593-.6096814-.8663405-.9397479-1.262949-.5432114-.6527236-1.0535397-1.1233466-1.4147767-1.314438-.4604649-.040832-.7822998-.040832-1.0255599-.040832z" fill="#4a4a4a"></path></svg><style>@media (prefers-color-scheme: light) { :root { filter: none; } }
@media (prefers-color-scheme: dark) { :root { filter: none; } }
</style></svg>